<?xml version="1.0" encoding="UTF-8" standalone="no"?>
<!-- Created with Inkscape (http://www.inkscape.org/) -->

<svg
   xmlns:dc="http://purl.org/dc/elements/1.1/"
   xmlns:cc="http://creativecommons.org/ns#"
   xmlns:rdf="http://www.w3.org/1999/02/22-rdf-syntax-ns#"
   xmlns:svg="http://www.w3.org/2000/svg"
   xmlns="http://www.w3.org/2000/svg"
   xmlns:sodipodi="http://sodipodi.sourceforge.net/DTD/sodipodi-0.dtd"
   xmlns:inkscape="http://www.inkscape.org/namespaces/inkscape"
   width="24"
   height="24"
   viewBox="0 0 6.3499999 6.3500002"
   version="1.1"
   id="svg882"
   inkscape:version="0.92.3 (2405546, 2018-03-11)"
   sodipodi:docname="hero.svg">
  <defs
     id="defs876" />
  <sodipodi:namedview
     id="base"
     pagecolor="#ffffff"
     bordercolor="#666666"
     borderopacity="1.0"
     inkscape:pageopacity="0.0"
     inkscape:pageshadow="2"
     inkscape:zoom="22.4"
     inkscape:cx="9.5357916"
     inkscape:cy="13.608241"
     inkscape:document-units="mm"
     inkscape:current-layer="layer1"
     showgrid="false"
     units="px"
     inkscape:window-width="1920"
     inkscape:window-height="1057"
     inkscape:window-x="-8"
     inkscape:window-y="-8"
     inkscape:window-maximized="1" />
  <metadata
     id="metadata879">
    <rdf:RDF>
      <cc:Work
         rdf:about="">
        <dc:format>image/svg+xml</dc:format>
        <dc:type
           rdf:resource="http://purl.org/dc/dcmitype/StillImage" />
        <dc:title></dc:title>
      </cc:Work>
    </rdf:RDF>
  </metadata>
  <g
     inkscape:label="Layer 1"
     inkscape:groupmode="layer"
     id="layer1"
     transform="translate(0,-290.64998)">
    <path
       style="fill:#ffd5d5;stroke:#000000;stroke-width:0.1;stroke-linecap:butt;stroke-linejoin:miter;stroke-miterlimit:4;stroke-dasharray:none;stroke-opacity:1"
       d="m 2.4924372,295.53532 2.2560454,-0.0118 c 0,0 0.6260317,-0.0119 0.6142114,0.62601 -0.011819,0.63793 -0.6378349,0.67327 -0.6378349,0.67327 L 2.4215667,296.811 c 0,0 -0.114731,-0.39867 -0.1063059,-0.6024 0.00959,-0.23185 0.1771764,-0.67323 0.1771764,-0.67323 z"
       id="path1467-4"
       inkscape:connector-curvature="0"
       sodipodi:nodetypes="cczccacc" />
    <path
       style="fill:#ffd5d5;stroke:#000000;stroke-width:0.1;stroke-linecap:butt;stroke-linejoin:miter;stroke-miterlimit:4;stroke-dasharray:none;stroke-opacity:1"
       d="m 2.3753877,290.69994 2.0932885,0.84144 c 0,0 0.5841271,0.22551 0.3321712,0.81167 -0.2519631,0.58618 -0.8449305,0.38239 -0.8449305,0.38239 l -2.1281172,-0.88115 c 0,0 0.044396,-0.41246 0.1291688,-0.59791 0.096475,-0.21104 0.4184003,-0.55639 0.4184003,-0.55639 z"
       id="path1467"
       inkscape:connector-curvature="0"
       sodipodi:nodetypes="cczccacc" />
    <path
       style="fill:#00ff00;fill-opacity:0.96482412;fill-rule:nonzero;stroke:#000000;stroke-width:0.13336347;stroke-miterlimit:4;stroke-dasharray:none;stroke-dashoffset:0;stroke-opacity:1"
       id="path1450-3"
       sodipodi:type="arc"
       sodipodi:cx="2.5040927"
       sodipodi:cy="291.6138"
       sodipodi:rx="0.95186037"
       sodipodi:ry="0.92233205"
       sodipodi:start="4.5767594"
       sodipodi:end="4.5751014"
       sodipodi:open="true"
       d="m 2.3753877,290.69994 a 0.95186037,0.92233205 0 0 1 1.0717704,0.78877 0.95186037,0.92233205 0 0 1 -0.8135786,1.03885 0.95186037,0.92233205 0 0 1 -1.0724449,-0.78791 0.95186037,0.92233205 0 0 1 0.8126896,-1.0395" />
    <path
       style="fill:#00ff00;fill-opacity:0.96482412;fill-rule:nonzero;stroke:#000000;stroke-width:0.13336347;stroke-miterlimit:4;stroke-dasharray:none;stroke-dashoffset:0;stroke-opacity:1"
       id="path1450"
       sodipodi:type="arc"
       sodipodi:cx="2.4686573"
       sodipodi:cy="295.96649"
       sodipodi:rx="0.95186037"
       sodipodi:ry="0.92233205"
       sodipodi:start="4.5767594"
       sodipodi:end="4.5751014"
       sodipodi:open="true"
       d="m 2.3399523,295.05263 a 0.95186037,0.92233205 0 0 1 1.0717704,0.78877 0.95186037,0.92233205 0 0 1 -0.8135787,1.03885 0.95186037,0.92233205 0 0 1 -1.0724448,-0.78791 0.95186037,0.92233205 0 0 1 0.8126896,-1.0395" />
    <path
       style="fill:#ffd5d5;fill-opacity:0.96482414;fill-rule:nonzero;stroke:#000000;stroke-width:0.1;stroke-miterlimit:4;stroke-dasharray:none;stroke-dashoffset:0;stroke-opacity:1"
       id="path1427"
       sodipodi:type="arc"
       sodipodi:cx="3.1950798"
       sodipodi:cy="293.68088"
       sodipodi:rx="2.1320219"
       sodipodi:ry="2.0788691"
       sodipodi:start="4.5767594"
       sodipodi:end="4.5751014"
       sodipodi:open="true"
       d="m 2.9068003,291.6211 a 2.1320219,2.0788691 0 0 1 2.4006021,1.77783 2.1320219,2.0788691 0 0 1 -1.822292,2.34149 2.1320219,2.0788691 0 0 1 -2.4021128,-1.77589 2.1320219,2.0788691 0 0 1 1.8203007,-2.34296" />
    <path
       style="fill:#000000;fill-opacity:1;fill-rule:nonzero;stroke:#000000;stroke-width:0.1;stroke-miterlimit:4;stroke-dasharray:none;stroke-dashoffset:0;stroke-opacity:1"
       id="path1431"
       sodipodi:type="arc"
       sodipodi:cx="4.7601376"
       sodipodi:cy="292.93674"
       sodipodi:rx="0.1063058"
       sodipodi:ry="0.094494052"
       sodipodi:start="4.5767594"
       sodipodi:end="4.5751014"
       sodipodi:open="true"
       d="m 4.7457635,292.84311 a 0.1063058,0.09449405 0 0 1 0.1196976,0.0808 0.1063058,0.09449405 0 0 1 -0.090862,0.10643 0.1063058,0.09449405 0 0 1 -0.1197729,-0.0807 0.1063058,0.09449405 0 0 1 0.090763,-0.1065" />
    <path
       style="fill:#000000;fill-opacity:1;fill-rule:nonzero;stroke:#000000;stroke-width:0.1;stroke-miterlimit:4;stroke-dasharray:none;stroke-dashoffset:0;stroke-opacity:1"
       id="path1431-1"
       sodipodi:type="arc"
       sodipodi:cx="4.7601371"
       sodipodi:cy="294.49588"
       sodipodi:rx="0.1063058"
       sodipodi:ry="0.094494052"
       sodipodi:start="4.5767594"
       sodipodi:end="4.5751014"
       sodipodi:open="true"
       d="m 4.745763,294.40225 a 0.1063058,0.09449405 0 0 1 0.1196976,0.0808 0.1063058,0.09449405 0 0 1 -0.090862,0.10644 0.1063058,0.09449405 0 0 1 -0.1197729,-0.0807 0.1063058,0.09449405 0 0 1 0.090763,-0.10649" />
    <path
       style="fill:#784421;stroke:#000000;stroke-width:0.26458332px;stroke-linecap:butt;stroke-linejoin:miter;stroke-opacity:1"
       d="m 1.5607681,293.29278 c 0.7539761,-1.21158 0.4111745,-1.30752 1.094889,-1.43817 0.6837146,-0.13065 1.2633558,-0.23889 1.460255,0.50685 0.1968991,0.74574 -0.2502848,0.85184 -0.1903637,1.39765 0.059923,0.5458 0.4608712,0.64724 0.1506065,1.06217 -0.3102648,0.41493 0.7670802,0.63074 -0.5013567,0.7838 -1.268435,0.15306 -1.5156252,0.0133 -1.9561166,-0.39953 -0.4405002,-0.41276 -0.5597942,-0.14889 -0.78888207,-0.58719 -0.22909433,-0.43828 -0.10311903,-1.22101 0.0136025,-1.47333 0.11672154,-0.25233 0.73205548,-0.95023 0.79740768,-0.97198 0.065344,-0.0217 0.2756775,-0.42264 0.625492,-0.52623 0.3498123,-0.10358 -0.7055271,1.64593 -0.7055271,1.64593 z"
       id="path1448"
       inkscape:connector-curvature="0" />
  </g>
</svg>
