<?xml version="1.0" encoding="UTF-8" standalone="no"?>
<!-- Created with Inkscape (http://www.inkscape.org/) -->

<svg
   xmlns:dc="http://purl.org/dc/elements/1.1/"
   xmlns:cc="http://creativecommons.org/ns#"
   xmlns:rdf="http://www.w3.org/1999/02/22-rdf-syntax-ns#"
   xmlns:svg="http://www.w3.org/2000/svg"
   xmlns="http://www.w3.org/2000/svg"
   xmlns:sodipodi="http://sodipodi.sourceforge.net/DTD/sodipodi-0.dtd"
   xmlns:inkscape="http://www.inkscape.org/namespaces/inkscape"
   width="24"
   height="24"
   viewBox="0 0 6.3499999 6.3500002"
   version="1.1"
   id="svg882"
   inkscape:version="0.92.3 (2405546, 2018-03-11)"
   sodipodi:docname="zombie3.svg">
  <defs
     id="defs876" />
  <sodipodi:namedview
     id="base"
     pagecolor="#ffffff"
     bordercolor="#666666"
     borderopacity="1.0"
     inkscape:pageopacity="0.0"
     inkscape:pageshadow="2"
     inkscape:zoom="22.4"
     inkscape:cx="9.5357916"
     inkscape:cy="17.17967"
     inkscape:document-units="mm"
     inkscape:current-layer="layer1"
     showgrid="false"
     units="px"
     inkscape:window-width="1920"
     inkscape:window-height="1057"
     inkscape:window-x="-8"
     inkscape:window-y="-8"
     inkscape:window-maximized="1" />
  <metadata
     id="metadata879">
    <rdf:RDF>
      <cc:Work
         rdf:about="">
        <dc:format>image/svg+xml</dc:format>
        <dc:type
           rdf:resource="http://purl.org/dc/dcmitype/StillImage" />
        <dc:title></dc:title>
      </cc:Work>
    </rdf:RDF>
  </metadata>
  <g
     inkscape:label="Layer 1"
     inkscape:groupmode="layer"
     id="layer1"
     transform="translate(0,-290.64998)">
    <path
       style="fill:#008000;stroke:#000000;stroke-width:0.11407586;stroke-linecap:butt;stroke-linejoin:miter;stroke-miterlimit:4;stroke-dasharray:none;stroke-opacity:1"
       d="m 2.5459591,295.53532 2.9358599,-0.0118 c 0,0 0.8146739,-0.0119 0.7992918,0.62601 -0.015381,0.63793 -0.8300338,0.67327 -0.8300338,0.67327 L 2.4537331,296.811 c 0,0 -0.1493029,-0.39867 -0.138339,-0.6024 0.01248,-0.23185 0.230565,-0.67323 0.230565,-0.67323 z"
       id="path1467-4"
       inkscape:connector-curvature="0"
       sodipodi:nodetypes="cczccacc" />
    <path
       style="fill:#ff2a2a;stroke:#ff8080;stroke-width:0.05199301px;stroke-linecap:butt;stroke-linejoin:miter;stroke-opacity:1"
       d="m 3.7965998,295.79016 c -0.1370868,0.16168 -0.1896112,0.16284 -0.307844,0.13593 -0.1182937,-0.027 -0.076292,-0.0104 -0.1717537,-0.0643 -0.095451,-0.0539 0.010763,-0.18359 -0.2388443,-0.2211 -0.023554,-0.0573 -0.051611,-0.24707 -0.046654,-0.25787 0.00482,-0.0109 -0.02852,0.0556 0,0 0.4897884,-0.14221 0.7749049,0.39544 0.765049,0.40742 z"
       id="path1448-0-4"
       inkscape:connector-curvature="0"
       sodipodi:nodetypes="cccccccc" />
    <path
       style="fill:#008080;stroke:#000000;stroke-width:0.1513163px;stroke-linecap:butt;stroke-linejoin:miter;stroke-opacity:1"
       d="m 2.4310668,295.22347 c 0.4206109,-0.0695 0.2394828,0.47586 0.8910606,0.24436 0.4388495,-0.15593 -0.059508,0.53453 -0.022646,0.82472 -1.7518635,0.4066 -0.065267,0.27504 -0.2561371,0.49564 -0.4342478,-0.23123 -0.7923112,0.57617 -1.1630127,0.27339 -0.2709891,-0.21946 -0.1917822,-0.1294 -0.3327137,-0.36243 -0.1409353,-0.23302 0.4742774,-0.30378 -0.1442266,-0.73309 0.071805,-0.13415 0.4503495,-0.5052 0.4905532,-0.51677 0.040199,-0.0115 -0.1001672,-0.1144 0.1150334,-0.16947 0.021299,0.19722 0.2496114,-0.0353 0.4220885,-0.0564 z"
       id="path1448-3"
       inkscape:connector-curvature="0"
       sodipodi:nodetypes="cscccccccc" />
    <path
       style="fill:#008000;stroke:#000000;stroke-width:0.12093223;stroke-linecap:butt;stroke-linejoin:miter;stroke-miterlimit:4;stroke-dasharray:none;stroke-opacity:1"
       d="m 2.0576505,290.90011 3.2988035,-0.0437 c 0,0 0.9152117,-0.0207 0.9111081,0.61727 -0.0041,0.63803 -0.9187981,0.68222 -0.9187981,0.68222 l -3.368386,0.0207 c 0,0 -0.1760072,-0.397 -0.1678993,-0.60083 0.00923,-0.23196 0.245175,-0.67566 0.245175,-0.67566 z"
       id="path1467"
       inkscape:connector-curvature="0"
       sodipodi:nodetypes="cczccacc" />
    <path
       style="fill:#008080;fill-opacity:0.96482412;fill-rule:nonzero;stroke:#000000;stroke-width:0.13336347;stroke-miterlimit:4;stroke-dasharray:none;stroke-dashoffset:0;stroke-opacity:1"
       id="path1450-3"
       sodipodi:type="arc"
       sodipodi:cx="2.5040927"
       sodipodi:cy="291.6138"
       sodipodi:rx="0.95186037"
       sodipodi:ry="0.92233205"
       sodipodi:start="4.5767594"
       sodipodi:end="4.5751014"
       sodipodi:open="true"
       d="m 2.3753877,290.69994 a 0.95186037,0.92233205 0 0 1 1.0717704,0.78877 0.95186037,0.92233205 0 0 1 -0.8135786,1.03885 0.95186037,0.92233205 0 0 1 -1.0724449,-0.78791 0.95186037,0.92233205 0 0 1 0.8126896,-1.0395" />
    <path
       style="fill:#008000;fill-opacity:0.96482412;fill-rule:nonzero;stroke:#000000;stroke-width:0.1;stroke-miterlimit:4;stroke-dasharray:none;stroke-dashoffset:0;stroke-opacity:1"
       id="path1427"
       sodipodi:type="arc"
       sodipodi:cx="2.5690567"
       sodipodi:cy="293.72812"
       sodipodi:rx="2.1320219"
       sodipodi:ry="2.0788691"
       sodipodi:start="4.5767594"
       sodipodi:end="4.5751014"
       sodipodi:open="true"
       d="m 2.2807772,291.66834 a 2.1320219,2.0788691 0 0 1 2.4006021,1.77783 2.1320219,2.0788691 0 0 1 -1.8222919,2.34149 2.1320219,2.0788691 0 0 1 -2.40211281,-1.77589 2.1320219,2.0788691 0 0 1 1.82030061,-2.34296" />
    <path
       style="fill:#000000;fill-opacity:1;fill-rule:nonzero;stroke:#000000;stroke-width:0.1;stroke-miterlimit:4;stroke-dasharray:none;stroke-dashoffset:0;stroke-opacity:1"
       id="path1431"
       sodipodi:type="arc"
       sodipodi:cx="4.1341143"
       sodipodi:cy="292.98398"
       sodipodi:rx="0.1063058"
       sodipodi:ry="0.094494052"
       sodipodi:start="4.5767594"
       sodipodi:end="4.5751014"
       sodipodi:open="true"
       d="m 4.1197402,292.89035 a 0.1063058,0.09449405 0 0 1 0.1196976,0.0808 0.1063058,0.09449405 0 0 1 -0.090862,0.10643 0.1063058,0.09449405 0 0 1 -0.1197729,-0.0807 0.1063058,0.09449405 0 0 1 0.090763,-0.1065" />
    <path
       style="fill:#000000;fill-opacity:1;fill-rule:nonzero;stroke:#000000;stroke-width:0.1;stroke-miterlimit:4;stroke-dasharray:none;stroke-dashoffset:0;stroke-opacity:1"
       id="path1431-1"
       sodipodi:type="arc"
       sodipodi:cx="4.1341138"
       sodipodi:cy="294.54312"
       sodipodi:rx="0.1063058"
       sodipodi:ry="0.094494052"
       sodipodi:start="4.5767594"
       sodipodi:end="0.19055042"
       d="m 4.1197397,294.4495 a 0.1063058,0.09449405 0 0 1 0.091579,0.0287 0.1063058,0.09449405 0 0 1 0.027177,0.0829 l -0.1043817,-0.0179 z" />
    <path
       style="fill:#00ff00;stroke:#000000;stroke-width:0.26458332px;stroke-linecap:butt;stroke-linejoin:miter;stroke-opacity:1"
       d="m 1.8878929,291.79555 c 0.6837146,-0.13065 0.3892859,0.89505 1.4484433,0.45961 0.713362,-0.29327 -0.096732,1.00539 -0.036811,1.5512 -2.84770197,0.76476 -0.1060931,0.51731 -0.4163578,0.93224 -0.7058817,-0.43492 -1.2879235,1.08369 -1.89050897,0.5142 -0.4405002,-0.41276 -0.3117473,-0.24338 -0.5408352,-0.68168 -0.22909432,-0.43828 0.77095087,-0.57137 -0.23444437,-1.37884 0.11672154,-0.25233 0.73205547,-0.95023 0.79740764,-0.97198 0.065344,-0.0217 -0.16282447,-0.21517 0.18699,-0.31876 0.034622,0.37095 0.4057502,-0.0663 0.6861164,-0.10599 z"
       id="path1448"
       inkscape:connector-curvature="0"
       sodipodi:nodetypes="cscccccccc" />
    <path
       style="fill:#ff2a2a;stroke:#ff8080;stroke-width:0.05199301px;stroke-linecap:butt;stroke-linejoin:miter;stroke-opacity:1"
       d="m 4.5481191,296.4674 c -0.00728,-0.21185 0.030814,-0.24803 0.136412,-0.30763 0.1056802,-0.0596 0.063466,-0.0436 0.1703738,-0.0679 0.1068934,-0.0243 0.115505,0.14311 0.3254566,0.003 0.055999,0.0266 0.2043569,0.14814 0.2079546,0.15947 0.00376,0.0113 -0.5301974,0.0438 -0.5139383,0.10411 -0.2668407,0.43464 -0.3254909,0.12438 -0.3262587,0.10888 z"
       id="path1448-0"
       inkscape:connector-curvature="0"
       sodipodi:nodetypes="ccccccc" />
    <path
       style="fill:#ff2a2a;stroke:#ff8080;stroke-width:0.05199301px;stroke-linecap:butt;stroke-linejoin:miter;stroke-opacity:1"
       d="m 2.0089779,295.27991 c -0.00728,-0.21185 0.089873,-0.27165 0.1954708,-0.33125 0.1056802,-0.0596 0.1290639,-0.0288 0.4367716,-0.0413 0.2309089,-0.1785 -0.5687328,0.3883 -0.6322424,0.37246 z"
       id="path1448-0-7"
       inkscape:connector-curvature="0"
       sodipodi:nodetypes="ccccc" />
    <path
       style="fill:#ff2a2a;stroke:#ff8080;stroke-width:0.05199301px;stroke-linecap:butt;stroke-linejoin:miter;stroke-opacity:1"
       d="m 5.3801188,291.98275 c -0.2317034,-0.73157 0.089873,-0.27165 0.1954708,-0.33125 0.1056802,-0.0596 0.1290639,-0.0288 0.4367716,-0.0413 0.2309089,-0.1785 -0.3561212,0.5891 -0.6322424,0.37246 z"
       id="path1448-0-7-5"
       inkscape:connector-curvature="0"
       sodipodi:nodetypes="ccccc" />
  </g>
</svg>
