<?xml version="1.0" encoding="UTF-8" standalone="no"?>
<!-- Created with Inkscape (http://www.inkscape.org/) -->

<svg
   xmlns:dc="http://purl.org/dc/elements/1.1/"
   xmlns:cc="http://creativecommons.org/ns#"
   xmlns:rdf="http://www.w3.org/1999/02/22-rdf-syntax-ns#"
   xmlns:svg="http://www.w3.org/2000/svg"
   xmlns="http://www.w3.org/2000/svg"
   xmlns:sodipodi="http://sodipodi.sourceforge.net/DTD/sodipodi-0.dtd"
   xmlns:inkscape="http://www.inkscape.org/namespaces/inkscape"
   width="24"
   height="24"
   viewBox="0 0 6.3499999 6.3500002"
   version="1.1"
   id="svg882"
   inkscape:version="0.92.3 (2405546, 2018-03-11)"
   sodipodi:docname="zombie4.svg">
  <defs
     id="defs876" />
  <sodipodi:namedview
     id="base"
     pagecolor="#ffffff"
     bordercolor="#666666"
     borderopacity="1.0"
     inkscape:pageopacity="0.0"
     inkscape:pageshadow="2"
     inkscape:zoom="22.4"
     inkscape:cx="14.472235"
     inkscape:cy="12.670081"
     inkscape:document-units="mm"
     inkscape:current-layer="layer1"
     showgrid="false"
     units="px"
     inkscape:window-width="1920"
     inkscape:window-height="1057"
     inkscape:window-x="-8"
     inkscape:window-y="-8"
     inkscape:window-maximized="1" />
  <metadata
     id="metadata879">
    <rdf:RDF>
      <cc:Work
         rdf:about="">
        <dc:format>image/svg+xml</dc:format>
        <dc:type
           rdf:resource="http://purl.org/dc/dcmitype/StillImage" />
        <dc:title></dc:title>
      </cc:Work>
    </rdf:RDF>
  </metadata>
  <g
     inkscape:label="Layer 1"
     inkscape:groupmode="layer"
     id="layer1"
     transform="translate(0,-290.64998)">
    <path
       style="fill:#008000;stroke:#000000;stroke-width:0.11407586;stroke-linecap:butt;stroke-linejoin:miter;stroke-miterlimit:4;stroke-dasharray:none;stroke-opacity:1"
       d="m 2.5459591,295.53532 2.9358599,-0.0118 c 0,0 0.8146739,-0.0119 0.7992918,0.62601 -0.015381,0.63793 -0.8300338,0.67327 -0.8300338,0.67327 l -1.5043882,-0.0324 c 0,0 -0.010483,-0.26777 -0.1084224,-0.2745 -0.097939,-0.007 -0.1847575,0.26818 -0.1847575,0.26818 l -0.4940172,-0.0106 c 0,0 -0.7358157,-0.24406 -0.8440976,-0.56482 -0.075869,-0.22475 0.230565,-0.67323 0.230565,-0.67323 z"
       id="path1467-4"
       inkscape:connector-curvature="0"
       sodipodi:nodetypes="cczcczccacc" />
    <path
       style="fill:#ff2a2a;stroke:#ff8080;stroke-width:0.05199301px;stroke-linecap:butt;stroke-linejoin:miter;stroke-opacity:1"
       d="m 3.7965998,295.79016 c -0.1370868,0.16168 -0.1896112,0.16284 -0.307844,0.13593 -0.1182937,-0.027 -0.076292,-0.0104 -0.1717537,-0.0643 -0.095451,-0.0539 0.010763,-0.18359 -0.2388443,-0.2211 -0.023554,-0.0573 -0.051611,-0.24707 -0.046654,-0.25787 0.00482,-0.0109 -0.02852,0.0556 0,0 0.4897884,-0.14221 0.7749049,0.39544 0.765049,0.40742 z"
       id="path1448-0-4"
       inkscape:connector-curvature="0"
       sodipodi:nodetypes="cccccccc" />
    <path
       style="fill:#008080;stroke:#000000;stroke-width:0.1513163px;stroke-linecap:butt;stroke-linejoin:miter;stroke-opacity:1"
       d="m 2.4310668,295.22347 c 0.4206109,-0.0695 0.2394828,0.47586 0.8910606,0.24436 0.4388495,-0.15593 -0.059508,0.53453 -0.022646,0.82472 -1.7518635,0.4066 -0.065267,0.27504 -0.2561371,0.49564 -0.4342478,-0.23123 -0.4248156,-0.24234 -0.7955171,-0.54512 -0.2709891,-0.21946 -0.5592778,0.68911 -0.7002093,0.45608 -0.1409353,-0.23302 0.4742774,-0.30378 -0.1442266,-0.73309 0.071805,-0.13415 0.4503495,-0.5052 0.4905532,-0.51677 0.040199,-0.0115 -0.1001672,-0.1144 0.1150334,-0.16947 0.021299,0.19722 0.2496114,-0.0353 0.4220885,-0.0564 z"
       id="path1448-3"
       inkscape:connector-curvature="0"
       sodipodi:nodetypes="csccccccccc" />
    <path
       style="fill:#008000;stroke:#000000;stroke-width:0.12093223;stroke-linecap:butt;stroke-linejoin:miter;stroke-miterlimit:4;stroke-dasharray:none;stroke-opacity:1"
       d="m 2.0576505,290.90011 3.2988035,-0.0437 c 0,0 0.9152117,-0.0207 0.9111081,0.61727 -0.0041,0.63803 -0.9187981,0.68222 -0.9187981,0.68222 l -3.368386,0.0207 c 0,0 -0.1760072,-0.397 -0.1678993,-0.60083 0.00923,-0.23196 0.245175,-0.67566 0.245175,-0.67566 z"
       id="path1467"
       inkscape:connector-curvature="0"
       sodipodi:nodetypes="cczccacc" />
    <path
       style="fill:#ff2a2a;stroke:#ff8080;stroke-width:0.05199301px;stroke-linecap:butt;stroke-linejoin:miter;stroke-opacity:1"
       d="m 3.3798617,291.71228 c -0.00728,-0.21185 0.030814,-0.24803 0.136412,-0.30763 0.1056802,-0.0596 0.063466,-0.0436 0.1703738,-0.0679 0.1068934,-0.0243 0.115505,0.14311 0.3254566,0.003 0.055999,0.0266 0.2043569,0.14814 0.2079546,0.15947 0.00376,0.0113 -0.5301974,0.0438 -0.5139383,0.10411 -0.2668407,0.43464 -0.3254909,0.12438 -0.3262587,0.10888 z"
       id="path1448-0-8"
       inkscape:connector-curvature="0"
       sodipodi:nodetypes="ccccccc" />
    <path
       style="fill:#008080;stroke:#000000;stroke-width:0.1513163px;stroke-linecap:butt;stroke-linejoin:miter;stroke-opacity:1"
       d="m 2.7240586,290.69044 c 0.4206109,-0.0695 0.2394828,0.47586 0.8910607,0.24436 0.4388495,-0.15593 -0.059508,0.53453 -0.022646,0.82472 -1.7518634,0.4066 -0.065267,0.27504 -0.2561371,0.49564 -0.4342478,-0.23123 -0.7923112,0.57617 -1.1630127,0.27339 -0.270989,-0.21946 -0.1917821,-0.1294 -0.3327136,-0.36243 -0.1409353,-0.23302 0.4742774,-0.30378 -0.1442266,-0.73309 0.071805,-0.13415 0.4503494,-0.5052 0.4905531,-0.51677 0.040199,-0.0115 -0.1001671,-0.1144 0.1150334,-0.16947 0.021299,0.19722 0.2496115,-0.0353 0.4220885,-0.0564 z"
       id="path1448-3-7"
       inkscape:connector-curvature="0"
       sodipodi:nodetypes="cscccccccc" />
    <path
       style="fill:#008000;fill-opacity:0.96482412;fill-rule:nonzero;stroke:#000000;stroke-width:0.1;stroke-miterlimit:4;stroke-dasharray:none;stroke-dashoffset:0;stroke-opacity:1"
       id="path1427"
       sodipodi:type="arc"
       sodipodi:cx="2.5690567"
       sodipodi:cy="293.72812"
       sodipodi:rx="2.1320219"
       sodipodi:ry="2.0788691"
       sodipodi:start="4.5767594"
       sodipodi:end="4.5751014"
       sodipodi:open="true"
       d="m 2.2807772,291.66834 a 2.1320219,2.0788691 0 0 1 2.4006021,1.77783 2.1320219,2.0788691 0 0 1 -1.8222919,2.34149 2.1320219,2.0788691 0 0 1 -2.40211281,-1.77589 2.1320219,2.0788691 0 0 1 1.82030061,-2.34296" />
    <path
       style="fill:#000000;fill-opacity:1;fill-rule:nonzero;stroke:#000000;stroke-width:0.1;stroke-miterlimit:4;stroke-dasharray:none;stroke-dashoffset:0;stroke-opacity:1"
       id="path1431"
       sodipodi:type="arc"
       sodipodi:cx="4.1341143"
       sodipodi:cy="292.98398"
       sodipodi:rx="0.1063058"
       sodipodi:ry="0.094494052"
       sodipodi:start="4.5767594"
       sodipodi:end="4.5751014"
       sodipodi:open="true"
       d="m 4.1197402,292.89035 a 0.1063058,0.09449405 0 0 1 0.1196976,0.0808 0.1063058,0.09449405 0 0 1 -0.090862,0.10643 0.1063058,0.09449405 0 0 1 -0.1197729,-0.0807 0.1063058,0.09449405 0 0 1 0.090763,-0.1065" />
    <path
       style="fill:#000000;fill-opacity:1;fill-rule:nonzero;stroke:#000000;stroke-width:0.05572744;stroke-miterlimit:4;stroke-dasharray:none;stroke-dashoffset:0;stroke-opacity:1"
       id="path1431-1"
       sodipodi:type="arc"
       sodipodi:cx="4.2380495"
       sodipodi:cy="294.55774"
       sodipodi:rx="0.023213092"
       sodipodi:ry="0.13438989"
       sodipodi:start="4.5767594"
       sodipodi:end="0.19055042"
       d="m 4.2349108,294.42458 a 0.02321309,0.13438989 0 0 1 0.019997,0.0408 0.02321309,0.13438989 0 0 1 0.00593,0.11783 l -0.022793,-0.0254 z" />
    <path
       style="fill:#00ff00;stroke:#000000;stroke-width:0.26458332px;stroke-linecap:butt;stroke-linejoin:miter;stroke-opacity:1"
       d="m 3.3363362,292.25516 c 0.713362,-0.29327 -1.2779076,0.8164 -1.2179866,1.36221 -1.25746459,-1.07185 -1.64926727,0.97668 -1.66652637,0.95375 -0.22909432,-0.43828 0.77095087,-0.57137 -0.23444437,-1.37884 2.10560334,-0.16717 0.46428941,-1.07901 0.98439764,-1.29074 0.209497,1.06753 1.8574714,0.46423 2.1345597,0.35362 z"
       id="path1448"
       inkscape:connector-curvature="0"
       sodipodi:nodetypes="cccccc" />
    <path
       style="fill:#ff2a2a;stroke:#ff8080;stroke-width:0.05199301px;stroke-linecap:butt;stroke-linejoin:miter;stroke-opacity:1"
       d="m 4.5481191,296.4674 c -0.00728,-0.21185 0.030814,-0.24803 0.136412,-0.30763 0.1056802,-0.0596 0.063466,-0.0436 0.1703738,-0.0679 0.1068934,-0.0243 0.115505,0.14311 0.3254566,0.003 0.055999,0.0266 0.2043569,0.14814 0.2079546,0.15947 0.00376,0.0113 -0.5301974,0.0438 -0.5139383,0.10411 -0.2668407,0.43464 -0.3254909,0.12438 -0.3262587,0.10888 z"
       id="path1448-0"
       inkscape:connector-curvature="0"
       sodipodi:nodetypes="ccccccc" />
    <path
       style="fill:#ff2a2a;stroke:#ff8080;stroke-width:0.05199301px;stroke-linecap:butt;stroke-linejoin:miter;stroke-opacity:1"
       d="m 1.3002725,295.11455 c -0.2131058,-0.18301 -0.35897369,-0.74412 -0.2533759,-0.80372 0.1056802,-0.0596 0.421721,-0.54135 0.7084419,-0.50195 0.6691475,0.0919 1.3396749,1.58978 1.2761653,1.57394 0,0 -1.2882114,0.11219 -1.7312313,-0.26827 z"
       id="path1448-0-7"
       inkscape:connector-curvature="0"
       sodipodi:nodetypes="acaca" />
    <path
       style="fill:#ff2a2a;stroke:#ff8080;stroke-width:0.05199301px;stroke-linecap:butt;stroke-linejoin:miter;stroke-opacity:1"
       d="m 5.3801188,291.98275 c -0.2317034,-0.73157 0.089873,-0.27165 0.1954708,-0.33125 0.1056802,-0.0596 0.1290639,-0.0288 0.4367716,-0.0413 0.2309089,-0.1785 -0.3561212,0.5891 -0.6322424,0.37246 z"
       id="path1448-0-7-5"
       inkscape:connector-curvature="0"
       sodipodi:nodetypes="ccccc" />
    <path
       style="fill:#ffd5d5;stroke:#ff8080;stroke-width:0.05199301px;stroke-linecap:butt;stroke-linejoin:miter;stroke-opacity:1"
       d="m 1.318657,294.51562 c -0.1303809,-0.16714 -0.1208186,-0.2188 -0.070399,-0.32907 0.050486,-0.11033 0.025731,-0.0726 0.097954,-0.15506 0.072211,-0.0825 0.085681,-0.10662 0.2650984,-0.18882 0.060941,-0.0114 0.2524028,-2.3e-4 0.2619717,0.007 0.00968,0.007 0.08952,0.40964 -0.3546624,0.38624 0.039502,0.50849 -0.1902733,0.29191 -0.2000029,0.27982 z"
       id="path1448-0-5"
       inkscape:connector-curvature="0"
       sodipodi:nodetypes="cccccccc" />
    <path
       style="fill:#ffd5d5;stroke:#ff8080;stroke-width:0.05199301px;stroke-linecap:butt;stroke-linejoin:miter;stroke-opacity:1"
       d="m 1.5187265,294.23598 c 0.1754339,-0.11899 0.2263443,-0.10601 0.3330205,-0.0484 0.1067316,0.0577 0.07073,0.0305 0.1482087,0.10804 0.07752,0.0775 -0.059592,0.17398 0.1707882,0.27706 0.00733,0.0616 -0.016542,0.25186 -0.024391,0.26093 -0.00763,0.009 -0.3194385,-0.42542 -0.3618208,-0.37954 -0.509991,0.006 -0.2786221,-0.20925 -0.2659124,-0.21816 z"
       id="path1448-0-5-0"
       inkscape:connector-curvature="0"
       sodipodi:nodetypes="ccccccc" />
    <path
       style="fill:#ffd5d5;stroke:#ff8080;stroke-width:0.05199301px;stroke-linecap:butt;stroke-linejoin:miter;stroke-opacity:1"
       d="m 1.5430804,294.50381 c 0.191623,-0.0906 0.2399378,-0.07 0.3364996,0.003 0.096606,0.0734 0.065208,0.041 0.1298627,0.12951 0.064696,0.0885 0.081446,0.18783 0.126223,0.3 -0.00221,0.062 -0.055016,0.24633 -0.064165,0.25409 -0.00895,0.008 -0.2503306,-0.46943 -0.2992549,-0.4306 -0.5048078,-0.0727 -0.2347396,-0.28256 -0.2208132,-0.28941 z"
       id="path1448-0-5-5"
       inkscape:connector-curvature="0"
       sodipodi:nodetypes="cccccccc" />
    <path
       style="fill:#ffd5d5;stroke:#ff8080;stroke-width:0.05199301px;stroke-linecap:butt;stroke-linejoin:miter;stroke-opacity:1"
       d="m 2.2624867,294.61687 c 0.1227531,-0.17279 0.1109286,-0.22397 0.055936,-0.33182 -0.055378,-0.10797 -0.028881,-0.0713 -0.104769,-0.15054 -0.1635868,-0.19195 -0.3506385,-0.28674 -0.2941414,-0.19768 -0.061535,-0.008 -0.2312793,0.0319 -0.2405071,0.0396 -0.00988,0.007 0.4183419,0.32865 0.3715484,0.37002 -0.016788,0.50974 0.2031038,0.28313 0.2122932,0.27062 z"
       id="path1448-0-5-5-5"
       inkscape:connector-curvature="0"
       sodipodi:nodetypes="cccccccc" />
    <path
       style="fill:#ffd5d5;stroke:#ff8080;stroke-width:0.05199301px;stroke-linecap:butt;stroke-linejoin:miter;stroke-opacity:1"
       d="m 2.1690041,295.19728 c 0.2084196,0.0387 0.2498595,0.006 0.3244848,-0.0892 0.074648,-0.0957 0.1778546,-0.17741 0.2177516,-0.2795 0.039937,-0.10211 -0.070148,-0.004 -0.079884,-0.20118 -0.017968,-0.0593 -0.1394728,-0.22926 -0.1394728,-0.22926 -0.4533381,-0.54789 0.141987,0.0919 -0.2879061,0.30483 -0.068312,0.23335 -0.050187,0.49124 -0.034974,0.49431 z"
       id="path1448-0-5-1"
       inkscape:connector-curvature="0"
       sodipodi:nodetypes="cccccccc" />
    <path
       style="fill:#ff2a2a;stroke:#ff8080;stroke-width:0.05199301px;stroke-linecap:butt;stroke-linejoin:miter;stroke-opacity:1"
       d="m 2.8032118,292.18308 c 0.00728,-0.21185 -0.030814,-0.24803 -0.136412,-0.30763 -0.1056802,-0.0596 -0.063466,-0.0436 -0.1703738,-0.0679 -0.1068934,-0.0243 -0.115505,0.14311 -0.3254566,0.003 -0.055999,0.0266 -0.2043569,0.14814 -0.2079546,0.15947 -0.00376,0.0113 0.5301974,0.0438 0.5139383,0.10411 0.2668407,0.43464 0.3254909,0.12438 0.3262587,0.10888 z"
       id="path1448-0-1"
       inkscape:connector-curvature="0"
       sodipodi:nodetypes="ccccccc" />
  </g>
</svg>
